<?xml version="1.0" standalone="no"?>
<!DOCTYPE svg PUBLIC "-//W3C//DTD SVG 20010904//EN"
 "http://www.w3.org/TR/2001/REC-SVG-20010904/DTD/svg10.dtd">
<svg version="1.0" xmlns="http://www.w3.org/2000/svg"
 width="1240.000000pt" height="620.000000pt" viewBox="0 0 1240.000000 620.000000"
 preserveAspectRatio="xMidYMid meet">

<g transform="translate(0.000000,620.000000) scale(0.100000,-0.100000)"
fill="#000000" stroke="none">
<path d="M3064 6148 c4 -29 10 -80 14 -113 5 -43 14 -67 30 -83 12 -12 26 -22
30 -22 4 0 23 -16 42 -35 19 -19 39 -35 46 -35 6 0 17 -7 24 -15 10 -12 9 -18
-5 -32 -27 -27 -113 -53 -175 -53 -59 0 -79 -10 -140 -65 -79 -73 -143 -62
-175 31 -11 34 -15 36 -60 40 -56 4 -73 16 -77 52 -2 19 -13 32 -36 44 -18 9
-41 23 -50 31 -28 24 -50 27 -79 12 -38 -20 -86 -19 -114 3 -38 30 -53 31 -99
11 -23 -10 -61 -19 -85 -19 -24 0 -66 -11 -98 -26 -62 -28 -72 -26 -130 22
-22 19 -41 24 -85 24 -31 1 -75 7 -97 15 -22 8 -46 15 -54 15 -8 0 -38 -25
-67 -56 l-52 -56 -88 7 c-86 7 -164 29 -164 45 0 17 -82 130 -94 130 -8 0 -25
-18 -40 -39 -23 -32 -41 -44 -113 -71 -66 -25 -87 -29 -93 -20 -9 14 -40 7
-40 -9 0 -5 15 -12 33 -14 17 -3 -4 -3 -48 -1 -44 2 -120 5 -170 7 -81 2 -90
4 -87 20 3 15 -1 18 -20 12 -46 -12 -164 -47 -188 -55 -49 -17 -138 -22 -161
-9 -25 13 -267 18 -287 5 -9 -5 -12 -225 -12 -958 0 -901 1 -950 18 -943 9 4
57 11 107 15 136 13 238 27 370 49 149 26 141 26 170 -4 30 -29 32 -58 4 -86
-16 -16 -31 -20 -72 -18 -95 4 -382 -63 -570 -133 l-27 -10 0 -215 c0 -205 1
-213 19 -204 10 6 108 13 217 16 109 3 317 9 462 14 191 6 302 5 403 -4 80 -8
154 -10 172 -5 18 5 64 11 102 15 125 12 134 35 47 116 -165 153 -237 215
-285 246 -28 19 -72 51 -96 71 -25 20 -70 53 -102 73 -50 33 -56 40 -52 63 6
30 47 56 88 56 35 0 152 -50 241 -103 110 -65 250 -176 349 -277 50 -50 107
-101 129 -113 53 -30 66 -38 103 -64 22 -17 45 -23 80 -23 31 0 43 3 34 9 -11
7 -11 9 0 13 11 4 12 10 2 25 -10 18 -8 22 13 32 60 27 121 -1 109 -50 -12
-48 5 -49 585 -39 342 5 582 5 665 -1 301 -23 364 -29 446 -42 47 -8 91 -17
97 -21 23 -14 -22 -45 -73 -52 -103 -13 -406 -23 -924 -29 -293 -3 -537 -8
-541 -10 -4 -3 -42 -5 -84 -7 -42 -1 -76 -5 -76 -9 0 -11 45 -34 127 -64 98
-37 322 -63 638 -75 149 -5 308 -15 355 -20 47 -6 162 -12 255 -15 94 -3 195
-9 225 -15 30 -5 163 -14 295 -20 132 -6 271 -16 309 -21 37 -5 325 -14 640
-19 314 -5 609 -13 656 -17 47 -4 92 -6 100 -5 8 2 159 7 335 12 354 10 534
23 568 42 12 7 42 14 67 15 25 1 65 5 89 9 50 7 61 -2 61 -53 0 -22 -6 -36
-20 -43 -28 -15 -225 -40 -400 -50 -80 -5 -208 -13 -285 -19 -479 -37 -623
-43 -1164 -48 -471 -5 -615 -3 -805 10 -127 9 -303 21 -391 27 -199 12 -483
35 -680 55 -82 8 -195 18 -250 20 -55 3 -149 10 -210 15 -410 37 -505 56 -612
122 -32 20 -76 41 -98 48 -86 27 -228 110 -275 160 -31 33 -96 39 -131 12 -33
-25 -184 -43 -339 -40 -69 2 -163 2 -210 0 -69 -2 -451 4 -549 9 -14 1 -95 -4
-178 -11 -113 -9 -161 -9 -184 -1 -71 25 -69 31 -69 -164 l0 -174 32 -17 c17
-9 40 -25 51 -35 12 -10 28 -19 37 -19 34 0 51 -48 34 -94 -8 -20 -53 -21
-101 -1 -19 8 -39 15 -44 15 -5 0 -9 -597 -9 -1385 l0 -1385 5626 0 c5347 0
5627 1 5640 18 10 14 33 18 131 21 187 6 259 2 341 -19 67 -18 108 -20 369
-20 l293 0 0 3100 0 3100 -2444 0 c-1619 0 -2447 -3 -2451 -10 -3 -5 -26 -10
-50 -10 -53 0 -112 -26 -118 -51 -3 -11 -12 -19 -21 -19 -18 0 -55 36 -67 68
-8 21 -13 22 -149 22 -139 0 -140 0 -156 -26 -22 -33 -77 -31 -82 4 -3 21 -8
22 -87 22 l-84 0 13 -37 c16 -47 4 -79 -33 -88 -14 -4 -38 -18 -53 -32 -31
-30 -65 -33 -141 -12 -60 16 -71 35 -64 111 l5 58 -161 0 -162 0 1 -74 c2 -69
4 -77 30 -100 31 -27 41 -29 119 -27 28 1 57 -3 65 -10 12 -8 5 -9 -28 -6 -31
4 -48 0 -64 -13 -21 -17 -21 -19 -6 -43 11 -15 46 -37 95 -57 166 -68 240
-109 247 -132 3 -13 6 -60 6 -105 0 -81 0 -82 33 -107 19 -15 41 -26 51 -26
17 0 66 -28 78 -44 18 -26 -12 -42 -104 -55 -51 -7 -103 -19 -115 -27 -12 -8
-34 -14 -48 -14 -14 0 -37 -7 -50 -16 -20 -13 -25 -25 -25 -59 0 -69 -35 -136
-70 -134 -10 0 -9 3 5 9 17 7 16 9 -9 9 -16 1 -43 9 -60 20 -43 25 -112 35
-119 17 -3 -8 -3 -17 1 -21 4 -4 8 -23 8 -43 1 -21 6 -55 12 -76 8 -31 8 -47
-4 -74 -7 -19 -11 -38 -8 -43 8 -14 -6 -49 -20 -49 -22 0 -71 28 -94 55 -30
34 -104 32 -117 -4 -3 -9 -19 -27 -36 -40 -26 -20 -33 -22 -58 -11 -45 18 -55
89 -22 151 13 23 16 41 10 50 -5 8 -9 33 -9 57 0 33 6 49 26 69 24 24 29 25
95 19 59 -6 69 -5 69 8 0 9 -7 16 -16 16 -8 0 -13 4 -9 9 6 11 -10 16 -72 26
-35 5 -48 3 -74 -15 -17 -13 -56 -28 -86 -34 -82 -16 -91 -33 -97 -181 -7
-162 -13 -192 -39 -199 -12 -3 -23 -4 -25 -2 -3 4 -25 102 -43 196 -6 30 -24
81 -40 114 -38 76 -38 124 -1 158 38 36 67 41 235 39 99 -1 147 2 147 9 0 8 6
8 20 0 14 -7 20 -7 20 0 0 5 9 10 19 10 11 0 22 6 24 13 5 12 11 -26 8 -50 -2
-14 24 -21 96 -25 57 -3 68 7 50 49 -13 29 -47 36 -71 15 -11 -9 -16 -12 -13
-6 4 7 -4 14 -21 17 -36 7 -72 39 -72 64 0 26 -98 61 -190 67 -136 9 -258 24
-278 35 -11 6 -40 11 -63 11 -23 0 -70 5 -104 11 -60 12 -64 11 -97 -15 -39
-29 -73 -33 -104 -12 -11 8 -37 16 -58 17 l-39 4 -19 -58 c-14 -42 -16 -63 -8
-77 16 -29 12 -50 -12 -70 -29 -23 -56 -12 -125 52 -28 26 -58 48 -66 48 -7 0
-36 16 -63 35 -48 35 -69 42 -76 28 -6 -14 -78 -43 -108 -43 -45 0 -119 36
-132 65 -11 24 -15 25 -77 23 l-66 -3 1 31 2 32 -82 4 c-48 3 -94 11 -113 21
-31 16 -33 16 -57 -7 -15 -13 -26 -28 -26 -34 0 -6 -18 -13 -39 -17 -22 -4
-45 -13 -52 -21 -16 -20 -79 -19 -79 1 0 9 -7 18 -15 22 -9 3 -22 18 -31 34
-14 28 -44 40 -44 18 0 -16 -86 -4 -116 16 -41 27 -31 59 30 99 29 20 60 36
69 36 9 0 65 25 125 55 68 35 120 55 138 54 16 -1 49 10 74 24 25 15 57 27 71
27 14 0 34 7 45 15 12 9 42 14 81 15 54 0 67 4 93 28 39 34 32 57 -20 73 -33
10 -45 8 -103 -15 -36 -14 -68 -26 -72 -26 -3 0 -36 -17 -73 -38 -37 -21 -83
-44 -102 -51 -19 -8 -48 -20 -65 -27 -54 -23 -199 -85 -230 -99 -131 -58 -233
-71 -276 -36 -24 19 -24 21 -21 195 l4 176 -147 0 -148 0 7 -52z m4785 18 c14
-17 7 -23 -33 -27 -36 -5 -45 14 -14 29 31 14 34 14 47 -2z m601 -6 c0 -5 -5
-10 -11 -10 -5 0 -7 5 -4 10 3 6 8 10 11 10 2 0 4 -4 4 -10z m-495 -104 c-16
-24 -35 -35 -35 -20 0 9 44 53 48 49 2 -2 -4 -15 -13 -29z m-669 -361 c4 -8
-1 -31 -11 -51 -21 -45 -13 -98 21 -129 51 -47 14 -80 -105 -93 -44 -4 -82 -6
-82 -3 -1 4 -3 41 -5 83 -2 58 -8 89 -27 127 l-26 50 32 9 c18 6 54 11 82 12
27 0 51 3 54 6 11 11 62 3 67 -11z m-5386 -70 c17 -9 30 -20 30 -25 0 -6 24
-7 59 -4 51 6 61 4 77 -14 11 -11 35 -37 55 -59 21 -23 35 -48 34 -60 -3 -40
-92 -233 -107 -233 -5 0 -31 9 -57 20 -41 18 -53 19 -92 10 -81 -21 -94 -20
-119 10 -28 34 -28 33 -48 183 l-16 118 39 34 c45 39 96 46 145 20z m2310 -13
c0 -15 -2 -15 -10 -2 -13 20 -13 33 0 25 6 -3 10 -14 10 -23z m-1542 -58 c12
-8 22 -23 22 -33 0 -24 20 -41 47 -41 40 0 81 -28 108 -73 14 -24 25 -50 25
-58 0 -8 16 -30 35 -49 43 -42 46 -80 9 -109 -18 -14 -35 -19 -53 -15 -77 18
-101 27 -153 58 -53 32 -58 33 -72 17 -11 -12 -14 -28 -10 -48 5 -27 1 -34
-31 -59 l-38 -29 -15 23 c-8 12 -20 22 -28 22 -15 0 -20 -16 -29 -95 -3 -33
-16 -80 -28 -105 -22 -47 -85 -135 -96 -134 -3 0 -19 4 -34 8 -24 7 -27 12
-23 35 5 22 0 30 -34 50 -57 35 -80 99 -64 179 6 27 10 30 58 37 28 3 60 13
70 20 19 15 19 15 -2 37 -53 57 -110 235 -91 286 9 24 87 72 117 72 12 0 37
-14 57 -31 19 -17 35 -26 35 -21 0 6 14 24 31 41 28 28 36 31 98 31 44 0 74
-5 89 -16z m-1714 -5 c26 -12 31 -26 41 -119 8 -72 -16 -164 -52 -202 -54 -56
-79 -24 -86 111 -5 97 5 147 39 198 17 26 23 27 58 12z m-559 -169 c8 -37 62
-100 86 -100 13 0 20 -10 24 -34 10 -49 -2 -76 -35 -83 -20 -3 -32 -15 -41
-37 -7 -17 -17 -34 -22 -38 -12 -7 -24 -106 -38 -308 -9 -129 -8 -149 7 -183
l17 -38 96 3 c148 3 353 -7 382 -20 52 -21 227 -25 314 -8 44 10 86 23 93 30
10 10 14 62 16 207 1 107 7 223 13 259 6 36 16 106 23 155 17 135 39 225 56
225 7 0 21 -17 29 -37 12 -29 17 -94 21 -293 6 -300 9 -310 84 -317 25 -2 49
-9 55 -14 5 -5 21 -9 36 -9 21 0 32 -9 52 -42 40 -70 45 -102 57 -341 10 -187
9 -231 -1 -244 -12 -13 -30 -15 -122 -9 -190 11 -219 17 -275 48 -46 26 -61
30 -105 25 -30 -2 -71 1 -97 9 -25 8 -64 14 -87 14 -48 0 -57 -11 -66 -79 -9
-68 -22 -76 -124 -72 -101 3 -112 11 -113 82 0 58 -7 61 -114 53 -45 -4 -131
-3 -190 1 -141 9 -151 18 -142 117 3 39 11 79 18 91 6 12 15 37 19 57 7 28 5
38 -11 50 -21 17 -26 48 -17 100 4 19 9 130 11 245 6 266 22 509 35 534 6 11
11 30 11 42 0 21 1 21 19 5 11 -10 23 -31 26 -46z m3503 -39 c15 -18 9 -212
-9 -291 -17 -75 -22 -188 -10 -233 9 -32 9 -54 0 -92 -7 -27 -12 -71 -11 -97
0 -36 -5 -53 -23 -72 -33 -35 -54 -33 -113 14 -27 22 -58 40 -69 40 -10 0 -28
7 -40 15 -19 13 -24 13 -50 0 -15 -8 -33 -15 -39 -15 -18 0 -63 50 -66 73 -5
33 41 67 91 67 36 0 41 3 41 23 0 16 -10 26 -40 39 -52 22 -66 55 -51 121 14
63 14 142 -1 183 -23 65 21 114 90 101 23 -4 31 1 54 34 20 28 49 49 110 78
85 41 110 44 136 12z m2970 -53 c17 -5 33 -13 33 -16 1 -4 3 -56 4 -117 2
-145 -10 -164 -116 -180 -59 -9 -84 16 -79 78 3 54 3 71 -6 135 -14 106 39
138 164 100z m-1899 -105 c17 -86 14 -154 -9 -183 -25 -32 -25 -37 7 -78 17
-23 30 -58 38 -101 19 -111 -7 -168 -100 -220 -60 -34 -58 -27 -35 -119 5 -19
7 -39 5 -45 -2 -7 -6 -38 -8 -70 -5 -63 7 -86 56 -97 26 -7 69 -67 63 -89 -2
-9 -7 -47 -11 -84 -8 -82 -32 -115 -88 -124 -34 -5 -41 -2 -76 35 -40 45 -68
112 -50 123 20 12 39 61 39 99 0 26 5 40 16 44 16 6 16 8 0 24 -9 10 -16 29
-16 41 0 13 -9 34 -20 48 -23 29 -25 55 -8 116 6 24 8 55 4 70 -6 25 -10 27
-61 27 -43 0 -58 5 -75 22 -38 41 -21 186 31 258 16 22 32 54 36 70 7 40 29
38 37 -3 5 -29 10 -33 41 -35 37 -3 36 -6 40 75 0 13 6 28 13 35 7 7 12 18 12
24 0 7 11 33 24 57 12 24 29 65 37 91 19 67 43 62 58 -11z m4321 38 c0 -28 18
-36 22 -9 2 15 13 -2 35 -57 31 -74 36 -127 6 -71 -7 14 -22 26 -32 26 -13 0
-25 16 -40 49 -25 59 -27 81 -6 81 8 0 15 -9 15 -19z m107 -53 c-3 -7 -5 -2
-5 12 0 14 2 19 5 13 2 -7 2 -19 0 -25z m-4633 -69 c4 -16 9 -42 12 -59 5 -26
2 -31 -21 -40 -18 -7 -33 -7 -45 0 -24 13 -36 71 -22 108 6 15 13 36 16 46 6
18 8 18 31 -4 13 -12 26 -35 29 -51z m-2644 43 c18 -14 24 -33 29 -82 3 -37
11 -65 19 -68 8 -2 10 2 5 14 -4 11 -3 15 5 10 6 -3 11 -14 12 -24 0 -9 3 -56
6 -104 6 -84 5 -88 -15 -88 -30 0 -42 32 -39 110 2 78 -4 91 -30 67 -29 -26
-67 -21 -88 11 -34 51 -11 142 40 162 30 12 31 12 56 -8z m7372 -39 c11 -14 1
-56 -11 -48 -5 2 -8 26 -8 52 0 27 2 39 4 28 3 -11 10 -25 15 -32z m-6034 -93
c7 -67 8 -132 2 -180 -11 -90 -18 -178 -26 -325 -6 -99 -5 -112 13 -134 17
-21 28 -24 109 -26 78 -2 97 -6 138 -30 28 -16 78 -33 122 -40 74 -13 75 -13
100 12 24 24 30 25 114 21 52 -2 95 -9 104 -17 17 -15 21 -51 7 -66 -5 -6 -11
-28 -14 -50 -20 -148 -58 -195 -142 -175 -22 5 -65 10 -95 10 -30 0 -84 5
-120 11 -48 8 -86 8 -145 -1 -122 -18 -236 -3 -298 41 -26 18 -47 38 -47 45 0
6 -11 19 -25 28 -22 15 -28 15 -61 1 -50 -20 -71 -19 -85 6 -8 16 -8 31 0 58
6 20 12 52 13 71 3 38 18 45 130 59 64 8 60 5 83 50 15 29 18 72 21 280 5 347
14 430 51 466 27 27 39 -1 51 -115z m5562 122 c0 -13 -12 -22 -22 -16 -10 6
-1 24 13 24 5 0 9 -4 9 -8z m250 -36 c0 -12 -5 -7 -19 24 -11 24 -11 24 3 6 9
-11 16 -24 16 -30z m-385 -21 c-30 -38 -35 -48 -25 -61 11 -13 15 -12 33 3 10
10 23 29 28 42 9 23 10 23 29 6 19 -17 19 -18 -1 -46 -16 -24 -17 -29 -5 -29
8 0 18 5 21 10 10 15 25 12 25 -6 0 -9 7 -14 18 -12 12 3 17 13 17 40 0 45 16
35 35 -22 7 -22 17 -40 22 -40 7 0 12 44 9 82 -1 9 3 19 8 22 11 7 31 -54 31
-96 0 -24 -4 -28 -28 -28 -15 0 -33 5 -39 11 -9 9 -10 6 -6 -10 3 -13 14 -28
24 -34 11 -7 19 -19 19 -29 0 -9 4 -19 9 -22 5 -3 7 -15 4 -26 -4 -13 1 -26
12 -34 12 -8 18 -26 18 -47 0 -19 3 -36 8 -39 10 -7 13 -71 4 -92 -9 -22 -30
-24 -21 -3 3 8 1 15 -4 15 -6 0 -10 6 -10 13 0 8 -7 14 -15 14 -8 0 -12 -4 -9
-8 3 -5 -4 -16 -15 -26 -11 -9 -17 -21 -14 -26 3 -6 1 -7 -6 -3 -6 4 -9 12 -6
17 8 12 -4 51 -14 44 -5 -2 -12 -35 -16 -72 -4 -37 -10 -84 -12 -103 -3 -19
-5 -47 -5 -62 1 -15 -4 -30 -10 -34 -7 -5 -9 10 -4 49 6 49 5 57 -13 66 -27
15 -41 14 -41 -4 0 -8 5 -15 10 -15 6 0 10 -9 10 -20 0 -15 -7 -20 -29 -20
-16 0 -31 6 -34 13 -2 6 -9 -5 -16 -25 -7 -21 -19 -38 -27 -38 -8 0 -14 -7
-14 -15 0 -8 6 -15 14 -15 36 0 18 -51 -19 -56 -11 -2 -12 4 -4 24 7 18 7 28
0 30 -6 2 -11 15 -11 28 0 29 -46 81 -53 61 -3 -7 -6 -5 -6 5 -1 9 -7 18 -13
21 -9 3 -8 10 6 26 23 25 16 37 -12 22 -15 -8 -23 -7 -32 4 -10 12 -9 15 8 15
26 0 38 18 18 26 -18 7 -22 34 -6 34 23 0 8 32 -24 50 -25 16 -32 26 -29 43 4
20 0 23 -31 25 -24 2 -38 -3 -45 -15 -9 -15 -11 -14 -12 12 -1 17 -2 38 -1 48
2 21 -5 22 -24 3 -8 -8 -14 -31 -14 -50 0 -32 -3 -36 -25 -36 -20 0 -25 5 -25
24 0 34 18 42 29 14 9 -20 10 -19 10 15 1 46 34 85 57 66 10 -8 14 -8 14 0 0
6 -4 11 -10 11 -22 0 -8 19 18 25 34 7 100 61 89 71 -4 5 -11 4 -15 -1 -4 -6
-18 -18 -32 -29 -14 -10 -3 3 25 29 27 26 51 42 53 36 7 -22 43 8 38 32 -4 17
10 35 65 85 39 34 73 62 76 62 3 0 -11 -20 -32 -45z m195 23 c0 -18 -2 -20 -9
-8 -6 8 -7 18 -5 22 9 14 14 9 14 -14z m129 -50 c1 -5 -3 -8 -9 -8 -5 0 -10
12 -9 28 0 24 1 25 9 7 5 -11 9 -23 9 -27z m78 7 c9 -24 -1 -27 -15 -5 -8 13
-8 20 -2 20 6 0 13 -7 17 -15z m-7505 -67 c28 -31 33 -50 29 -98 -3 -30 -38
-70 -61 -70 -9 0 -20 -4 -26 -10 -14 -14 -52 -1 -60 22 -10 34 7 136 28 163
26 34 55 32 90 -7z m7423 12 c3 -5 1 -10 -4 -10 -6 0 -11 5 -11 10 0 6 2 10 4
10 3 0 8 -4 11 -10z m-577 -25 c-6 -14 -13 -24 -14 -22 -6 6 9 47 17 47 5 0 3
-11 -3 -25z m-17 -58 c-1 -12 -15 -9 -19 4 -3 6 1 10 8 8 6 -3 11 -8 11 -12z
m-26 -37 c3 -5 1 -10 -4 -10 -6 0 -11 5 -11 10 0 6 2 10 4 10 3 0 8 -4 11 -10z
m580 0 c3 -5 2 -10 -4 -10 -5 0 -13 5 -16 10 -3 6 -2 10 4 10 5 0 13 -4 16
-10z m-631 -42 c-3 -4 -9 -8 -15 -8 -5 0 -9 4 -9 8 0 5 7 9 15 9 8 0 12 -4 9
-9z m-1314 -65 c0 -7 -6 -13 -13 -13 -8 0 -22 -9 -33 -21 -17 -19 -19 -19 -31
-3 -19 26 -16 51 8 68 20 13 24 13 45 -2 13 -9 24 -23 24 -29z m-1383 -31 c15
-9 35 -61 28 -72 -3 -4 -19 -13 -35 -19 -28 -9 -32 -8 -40 15 -13 33 -13 36 6
62 16 24 22 26 41 14z m183 -94 c0 -33 -23 -47 -46 -27 -17 14 -11 58 9 71 18
11 37 -12 37 -44z m2400 27 c0 -3 -8 -15 -19 -26 -15 -16 -20 -17 -24 -6 -3 8
0 20 6 26 11 11 37 15 37 6z m-6085 -22 c3 -10 3 -89 -1 -175 -7 -173 0 -212
43 -229 36 -13 20 -27 -43 -35 -48 -6 -61 -12 -105 -55 -37 -36 -58 -49 -79
-49 -16 0 -32 5 -35 10 -4 6 1 69 10 140 9 71 14 139 10 150 -10 31 13 79 45
95 34 18 60 71 60 124 l0 41 44 0 c33 0 46 -5 51 -17z m6175 -23 c0 -5 -4 -10
-10 -10 -5 0 -10 5 -10 10 0 6 5 10 10 10 6 0 10 -4 10 -10z m-2353 -71 c3
-65 26 -89 84 -89 35 0 40 -3 55 -37 22 -54 10 -282 -17 -317 -10 -12 -23 -45
-30 -72 -7 -27 -17 -52 -23 -56 -14 -9 -223 0 -291 13 -38 7 -61 20 -97 54
-26 24 -60 47 -75 50 -48 10 -77 29 -94 62 -9 18 -32 50 -52 72 -55 61 -63 80
-41 102 16 16 41 25 76 28 4 1 13 21 19 46 15 59 78 110 124 100 17 -3 79 -11
139 -16 82 -7 115 -7 136 3 33 14 60 56 60 93 0 51 24 20 27 -36z m2470 -1
c-3 -7 -5 -2 -5 12 0 14 2 19 5 13 2 -7 2 -19 0 -25z m578 22 c-3 -5 -10 -10
-16 -10 -5 0 -9 5 -9 10 0 6 7 10 16 10 8 0 12 -4 9 -10z m-102 -60 c8 0 7 -4
-3 -11 -11 -8 -12 -12 -2 -16 17 -7 15 -23 -2 -23 -8 0 -17 -13 -21 -29 -3
-16 -13 -35 -21 -42 -11 -9 -14 -7 -14 15 0 14 5 26 11 26 7 0 9 12 5 35 -4
19 -4 52 0 73 l7 37 14 -32 c7 -18 19 -33 26 -33z m-5955 3 c24 -70 25 -85 7
-119 -21 -39 -30 -43 -72 -32 -26 7 -33 14 -33 34 0 34 56 154 72 154 7 0 19
-17 26 -37z m5452 6 c0 -6 -4 -7 -10 -4 -5 3 -10 11 -10 16 0 6 5 7 10 4 6 -3
10 -11 10 -16z m-1793 -47 c15 -10 43 -89 43 -124 0 -58 -76 -89 -128 -52 -19
13 -22 24 -22 80 0 85 10 104 58 104 20 0 42 -4 49 -8z m-2128 -35 c16 -20 5
-25 -47 -20 -78 7 -98 13 -81 24 22 14 115 11 128 -4z m4011 -77 c0 -5 -7 -10
-15 -10 -8 0 -15 5 -15 10 0 6 7 10 15 10 8 0 15 -4 15 -10z m400 -5 c0 -8 -2
-15 -4 -15 -2 0 -6 7 -10 15 -3 8 -1 15 4 15 6 0 10 -7 10 -15z m-97 -2 c-7
-2 -19 -2 -25 0 -7 3 -2 5 12 5 14 0 19 -2 13 -5z m-473 -63 c0 -24 22 -35 48
-25 15 7 14 9 -8 15 l-25 7 25 6 c29 7 50 10 66 8 17 -2 56 -38 68 -64 10 -18
21 -23 69 -25 47 -2 57 -6 57 -21 0 -10 3 -33 6 -50 5 -24 3 -31 -10 -31 -9 0
-16 5 -16 10 0 20 -27 9 -38 -15 -6 -14 -18 -25 -26 -25 -8 0 -16 -6 -19 -12
-3 -10 -8 -10 -16 -2 -10 9 -6 13 14 18 43 11 23 31 -29 29 -25 -1 -46 3 -46
8 0 5 -18 9 -40 9 -22 0 -40 5 -40 10 0 6 -14 10 -31 10 -24 0 -30 4 -25 15 4
11 -3 19 -19 25 -14 5 -25 16 -25 25 0 8 -4 15 -10 15 -5 0 -10 9 -10 20 0 13
7 20 18 20 10 0 24 9 32 20 18 26 30 25 30 0z m473 7 c3 -8 -3 -13 -14 -13
-11 0 -19 6 -19 13 0 7 6 13 14 13 8 0 16 -6 19 -13z m107 -87 c0 -5 -4 -10
-10 -10 -5 0 -10 5 -10 10 0 6 5 10 10 10 6 0 10 -4 10 -10z m-175 -61 c9 -50
5 -55 -25 -29 -13 11 -29 20 -36 20 -17 0 -25 15 -18 34 4 10 18 16 39 16 31
0 34 -3 40 -41z m-4615 -1 c46 -31 48 -46 9 -62 -27 -12 -30 -15 -13 -19 10
-2 -4 -5 -33 -6 -60 -1 -83 6 -83 26 0 8 4 12 10 8 5 -3 7 8 5 27 -2 19 1 36
8 40 22 14 64 8 97 -14z m250 -78 c0 -28 -2 -29 -32 -23 -41 7 -40 7 -32 27 7
18 43 37 57 29 4 -2 7 -17 7 -33z m3990 28 c-1 -40 -13 -58 -41 -58 -19 0 -29
5 -29 15 0 8 5 15 10 15 6 0 10 9 10 20 0 15 7 20 25 20 14 0 25 -6 25 -12z
m-1487 -48 c22 0 27 -4 27 -26 0 -14 -9 -46 -19 -72 -11 -26 -22 -59 -25 -74
-4 -19 -15 -30 -31 -34 -14 -3 -30 -15 -36 -25 -5 -11 -17 -19 -26 -19 -21 0
-53 29 -53 47 0 7 -7 24 -16 37 -12 19 -14 38 -9 83 9 77 15 85 72 103 45 15
49 15 69 -2 11 -10 32 -18 47 -18z m170 -130 c-8 -30 -18 -70 -22 -89 -5 -31
-7 -32 -20 -17 -10 12 -22 15 -43 11 -25 -6 -28 -4 -28 18 0 24 31 105 46 120
4 4 16 -1 27 -10 18 -17 20 -17 36 3 9 12 17 21 18 20 1 0 -5 -26 -14 -56z
m-567 -547 c-11 -11 -19 6 -11 24 8 17 8 17 12 0 3 -10 2 -21 -1 -24z m47 7
c-3 -11 -7 -20 -9 -20 -2 0 -4 9 -4 20 0 11 4 20 9 20 5 0 7 -9 4 -20z m-2203
-20 c0 -5 -15 -10 -32 -10 -18 0 -63 -3 -100 -7 -46 -4 -68 -2 -68 5 0 12 40
18 138 20 36 1 62 -2 62 -8z m303 -7 c-7 -2 -19 -2 -25 0 -7 3 -2 5 12 5 14 0
19 -2 13 -5z m3792 -253 c20 0 42 -9 59 -25 15 -14 31 -25 37 -25 5 0 9 -9 9
-19 0 -10 7 -21 15 -25 11 -4 15 -20 15 -56 0 -57 12 -86 47 -113 13 -10 30
-32 38 -48 9 -16 19 -28 23 -28 24 4 40 -4 51 -25 11 -19 21 -23 51 -22 21 0
36 4 33 9 -4 7 5 8 77 12 39 1 71 13 82 29 5 8 8 8 8 0 0 -19 28 -24 43 -9 12
11 20 10 55 -8 23 -11 42 -27 42 -34 0 -7 9 -13 21 -13 11 0 32 -13 47 -29 23
-26 42 -33 142 -52 102 -19 124 -21 194 -11 43 7 84 16 90 21 6 5 43 17 81 27
39 9 82 23 97 30 15 8 40 14 57 14 16 0 32 4 35 9 7 10 97 41 121 41 9 0 27
13 40 28 13 16 30 29 37 29 17 1 82 26 88 34 11 14 81 22 175 20 79 -1 103 -5
112 -18 7 -9 23 -21 35 -27 15 -8 22 -19 19 -32 -2 -10 -4 -44 -5 -75 0 -31
-6 -62 -13 -70 -6 -8 -14 -26 -18 -42 -6 -21 -4 -27 9 -27 20 0 38 -34 34 -68
-2 -21 -8 -27 -28 -27 -32 0 -39 -11 -41 -60 -1 -43 -16 -103 -18 -72 -1 18
-31 25 -31 7 0 -5 5 -10 10 -10 6 0 10 -15 11 -32 0 -28 2 -30 9 -13 9 20 15
7 11 -23 -1 -8 3 -20 9 -27 16 -20 3 -91 -18 -101 -9 -4 -26 -6 -37 -5 -15 1
-25 -7 -34 -31 -14 -36 -60 -58 -120 -58 -17 0 -32 -4 -35 -9 -3 -5 -33 -7
-66 -4 -57 5 -61 4 -92 -26 -17 -17 -40 -33 -50 -37 -10 -3 -18 -9 -18 -12 0
-10 -83 -2 -90 8 -3 4 -20 5 -38 3 -26 -4 -31 -9 -27 -24 5 -14 1 -19 -14 -19
-23 0 -28 15 -8 23 6 3 -2 6 -19 6 -19 1 -38 -7 -49 -19 -22 -24 -35 -26 -35
-5 0 22 -21 18 -27 -5 -6 -22 -44 -30 -167 -34 -88 -3 -176 11 -176 28 0 6
-30 25 -67 43 -60 29 -68 30 -78 16 -8 -11 -14 -12 -19 -5 -3 6 -2 13 4 17 22
14 7 43 -56 110 -37 39 -73 85 -80 103 -11 23 -21 32 -38 32 -19 0 -26 7 -31
30 -11 49 -22 43 -29 -16 -7 -59 -26 -97 -66 -129 -49 -40 -73 -47 -125 -39
-45 6 -82 10 -152 13 -12 1 -38 15 -58 33 -50 43 -114 52 -222 32 -51 -9 -122
-14 -184 -12 -98 3 -102 4 -124 32 l-23 29 -12 -22 c-8 -17 -19 -22 -40 -19
-19 2 -37 -5 -52 -19 -13 -12 -40 -24 -60 -28 -21 -4 -42 -13 -49 -21 -6 -8
-20 -14 -31 -14 -11 0 -27 -4 -37 -10 -16 -8 -21 -3 -36 35 -12 32 -22 45 -36
45 -23 0 -28 19 -33 134 -4 88 -14 112 -43 101 -17 -6 -17 -5 7 50 11 25 24
43 30 40 12 -7 26 25 34 75 4 20 15 42 25 49 11 8 17 20 14 26 -5 15 37 23
122 24 33 1 72 3 88 7 16 3 27 1 27 -5 0 -6 7 -11 15 -11 8 0 15 5 15 10 0 6
18 10 40 10 22 0 61 10 86 22 38 18 47 19 55 7 5 -8 9 -20 9 -26 0 -7 5 -13
10 -13 6 0 10 -7 10 -15 0 -25 17 -17 30 15 7 17 25 48 39 68 45 63 57 98 81
226 5 27 16 56 25 66 8 9 15 26 15 37 0 43 11 55 43 49 16 -3 44 -6 62 -6z
m-1638 -34 c1 -1 4 -17 5 -36 3 -28 -2 -36 -29 -52 -45 -27 -76 -11 -68 35 9
46 33 70 65 62 14 -4 26 -8 27 -9z m1583 -2097 c41 -10 145 -28 275 -47 49 -8
102 -34 118 -59 4 -7 17 -13 27 -13 11 0 25 -9 32 -20 7 -11 16 -20 20 -20 5
0 17 -8 27 -17 46 -42 48 -43 59 -20 6 12 11 16 11 9 1 -7 6 -10 12 -7 19 12
64 13 72 1 6 -8 10 -8 14 2 10 24 23 11 23 -22 0 -26 5 -36 20 -41 22 -7 28
-45 7 -45 -7 0 -37 -7 -65 -15 -36 -11 -52 -21 -52 -33 -1 -54 -83 -70 -128
-25 -30 30 -67 38 -115 26 -22 -6 -51 -7 -65 -3 -15 5 -20 9 -12 10 8 1 4 5
-10 10 -32 9 -158 2 -186 -12 -11 -5 -36 -8 -55 -6 -29 3 -34 7 -37 31 -3 22
-10 29 -32 34 -37 7 -54 27 -47 53 3 11 1 23 -5 26 -5 4 -7 19 -4 35 3 18 1
29 -5 29 -6 0 -9 7 -5 15 3 9 0 15 -9 15 -16 0 -19 27 -9 78 8 42 42 50 124
31z"/>
<path d="M8806 4995 c-11 -8 -17 -18 -13 -22 4 -3 15 2 26 11 15 13 20 14 24
4 2 -7 8 -9 13 -5 5 4 2 12 -6 17 -19 12 -21 12 -44 -5z"/>
<path d="M8855 4920 c-3 -5 -1 -10 4 -10 6 0 11 5 11 10 0 6 -2 10 -4 10 -3 0
-8 -4 -11 -10z"/>
<path d="M8791 4881 c-10 -17 -9 -21 3 -21 20 0 31 19 18 32 -7 7 -14 3 -21
-11z"/>
<path d="M8739 4824 c-13 -14 -46 -37 -74 -50 -27 -13 -48 -24 -45 -24 3 -1
12 -3 20 -5 8 -1 20 -4 25 -6 24 -6 67 15 76 38 6 16 15 23 24 19 11 -4 15 2
15 24 0 37 -9 38 -41 4z"/>
<path d="M9036 4691 c-4 -5 -2 -12 3 -15 5 -4 12 -2 15 3 4 5 2 12 -3 15 -5 4
-12 2 -15 -3z"/>
<path d="M8784 4555 c-10 -8 -14 -15 -8 -15 6 0 17 7 24 15 16 19 9 19 -16 0z"/>
<path d="M8675 4160 c-4 -6 6 -10 22 -10 22 0 25 2 13 10 -19 12 -27 12 -35 0z"/>
<path d="M10580 2500 c0 -5 7 -10 15 -10 8 0 15 5 15 10 0 6 -7 10 -15 10 -8
0 -15 -4 -15 -10z"/>
<path d="M10525 2381 c-3 -5 -1 -12 5 -16 12 -7 30 2 30 16 0 12 -27 12 -35 0z"/>
<path d="M10590 2239 c0 -5 5 -7 10 -4 6 3 10 8 10 11 0 2 -4 4 -10 4 -5 0
-10 -5 -10 -11z"/>
<path d="M4557 6185 c-7 -16 -3 -20 36 -29 24 -6 27 -4 27 19 0 21 -5 25 -29
25 -16 0 -31 -6 -34 -15z"/>
<path d="M4890 6161 c0 -31 -6 -44 -30 -64 -16 -14 -39 -29 -51 -32 -28 -9
-20 -39 11 -43 14 -2 29 -8 35 -13 12 -12 45 -12 45 0 0 12 54 19 79 9 12 -4
21 -14 21 -22 0 -8 11 -27 25 -41 16 -15 21 -25 13 -26 -25 -2 47 -17 90 -18
37 -1 50 -8 97 -52 45 -42 60 -51 99 -54 24 -2 53 -8 63 -13 20 -10 139 -9
150 2 3 3 15 6 25 6 11 0 17 4 13 9 -3 5 -1 12 5 16 6 4 8 10 5 15 -8 13 15
58 34 65 8 3 17 1 19 -5 2 -6 23 -23 46 -38 37 -24 50 -26 126 -25 68 1 92 5
123 23 40 24 45 45 31 132 -6 33 -12 39 -71 67 -35 17 -68 31 -73 31 -5 0 -35
12 -65 26 -45 21 -57 33 -62 55 l-5 29 -399 0 -399 0 0 -39z"/>
<path d="M4634 5886 c-13 -33 0 -51 39 -54 30 -3 37 0 37 15 -1 43 -63 74 -76
39z"/>
<path d="M4413 5707 c-7 -12 -5 -13 66 -36 107 -35 156 -24 110 25 -22 23 -30
25 -97 22 -41 -2 -76 -7 -79 -11z"/>
<path d="M6111 5224 c0 -11 3 -14 6 -6 3 7 2 16 -1 19 -3 4 -6 -2 -5 -13z"/>
</g>
</svg>
